      ßßßßßßßßßßßßßßßßßßßßßßßßßßßßßßßßßßßßßßßßßßßßßßßßßßßßßßßßßßßßßßßßßßßßßß

                    Û°°°°°°°°°°°°°°°°°°°°°°°°°°°°°°Û
                   ÛÛ Adventureland[2009]DvDrip-LW ÛÛ
                    Û°°°°°°°°°°°°°°°°°°°°°°°°°°°°°°Û

File Name    : Adventureland[2009]DvDrip-LW
Type         : Movie
Format       : MP4
File Size    : 863 MB
Duration     : 01:46:52
Language     : English
Source       : DvD
Subtitles    : None
Genre        : Comedy | Drama | Romance
IMDB Link    : http://www.imdb.com/title/tt1091722/
IMDB Rating  : 7.7/10
IMDB Votes   : 8,644 Votes
     ÜÜÜÜÜÜÜÜÜÜÜÜÜÜÜÜÜÜÜÜÜÜÜÜÜÜÜÜÜÜÜÜÜÜÜÜÜÜÜÜÜÜÜÜÜÜÜÜÜÜÜÜÜÜÜÜÜÜÜÜÜÜÜÜÜÜÜÜÜÜ
 
                        Û°°°°°°°°°°°°°°°°°°°°°°°°Û
                       ÛÛ       Video Info       ÛÛ
                        Û°°°°°°°°°°°°°°°°°°°°°°°°Û

Format                           : MPEG-4 Visual
Format profile                   : Simple@L3
Format settings, BVOP            : No
Format settings, QPel            : No
Format settings, GMC             : No warppoints
Format settings, Matrix          : Default (H.263)
Codec ID                         : 20
Duration                         : 1h 46mn
Bit rate mode                    : Constant
Bit rate                         : 1 030 Kbps
Nominal bit rate                 : 1 024 Kbps
Width                            : 640 pixels
Height                           : 272 pixels
Display aspect ratio             : 2.35
Frame rate mode                  : Constant
Frame rate                       : 23.976 fps
Resolution                       : 24 bits
Colorimetry                      : 4:2:0
Scan type                        : Progressive
Bits/(Pixel*Frame)               : 0.247
Stream size                      : 788 MiB (91%)
     ÜÜÜÜÜÜÜÜÜÜÜÜÜÜÜÜÜÜÜÜÜÜÜÜÜÜÜÜÜÜÜÜÜÜÜÜÜÜÜÜÜÜÜÜÜÜÜÜÜÜÜÜÜÜÜÜÜÜÜÜÜÜÜÜÜÜÜÜÜÜ

                         Û°°°°°°°°°°°°°°°°°°°°°°°°Û
                        ÛÛ      Sound Info        ÛÛ
                         Û°°°°°°°°°°°°°°°°°°°°°°°°Û

Format                           : AAC
Format/Info                      : Advanced Audio Codec
Format version                   : Version 4
Format profile                   : LC
Format settings, SBR             : No
Codec ID                         : 40
Duration                         : 1h 46mn
Bit rate mode                    : Constant
Bit rate                         : 96.0 Kbps
Nominal bit rate                 : 48.0 Kbps
Channel(s)                       : 2 channels
Channel positions                : L R
Sampling rate                    : 24.0 KHz
Resolution                       : 16 bits
Stream size                      : 73.1 MiB (8%)
    ÜÜÜÜÜÜÜÜÜÜÜÜÜÜÜÜÜÜÜÜÜÜÜÜÜÜÜÜÜÜÜÜÜÜÜÜÜÜÜÜÜÜÜÜÜÜÜÜÜÜÜÜÜÜÜÜÜÜÜÜÜÜÜÜÜÜÜÜÜÜ

                          Û°°°°°°°°°°°°°°°°°°°°°°°°Û
                         ÛÛ          Plot          ÛÛ
                          Û°°°°°°°°°°°°°°°°°°°°°°°°Û

Unable to afford the European vacation he'd dreamed 
of, recent college grad James Brennan (Jesse Eisenberg) 
reluctantly takes a gig at a local amusement park, 
only to learn that the dead-end job is, in fact, 
excellent preparation for the real world. Writer-
director Greg Mottola's semi-autobiographical 
comedy-drama, filmed in Pittsburgh's Kennywood Park, 
also stars Ryan Reynolds and Kristen Stewart.

Starring: Ryan Reynolds, Kristen Stewart

Director: Greg Mottola
    ÜÜÜÜÜÜÜÜÜÜÜÜÜÜÜÜÜÜÜÜÜÜÜÜÜÜÜÜÜÜÜÜÜÜÜÜÜÜÜÜÜÜÜÜÜÜÜÜÜÜÜÜÜÜÜÜÜÜÜÜÜÜÜÜÜÜÜÜÜÜ